# xmcd
#
# Track frame offsets:
#	150
#	15095
#	20680
#	38100
#	60462
#	74445
#	92872
#	113445
#	131662
#	149510
#	166480
#
# Disc length: 2429 seconds
#
# Revision: 1
# Processed by: cddbd v1.5.1PL0 Copyright (c) Steve Scherf et al.
# Submitted via: CDex 1.50Beta5
#
DISCID=8f097b0b
DTITLE=影山ヒロノブ - ドラゴンボールZヒット曲集VI 〜BP∞バトルポイント・アンリミテッド〜
DYEAR=1991
DGENRE=Soundtrack
TTITLE0=影山ヒロノブ/CHA-LA HEAD-CHA-LA
TTITLE1=モノリス/BP∞バトルポイント・アンリミテッド OVERTURE
TTITLE2=影山ヒロノブ/「ヤ」なことには元気玉!!
TTITLE3=KUKO/マイペース
TTITLE4=橋本潮/マイ・My・毎日
TTITLE5=石原慎一/機械の様に… -バトリング・マシン-
TTITLE6=モノリス/BP∞バトルポイント・アンリミテッド
TTITLE7=KUKO/夢のかけら
TTITLE8=山野さと子/ドラゴンONDO
TTITLE9=野沢雅子/口笛の気持ち
TTITLE10=MANNA/でてこいとびきりZENKAIパワー!
EXTD=
EXTT0=
EXTT1=
EXTT2=
EXTT3=
EXTT4=
EXTT5=
EXTT6=
EXTT7=
EXTT8=
EXTT9=
EXTT10=
PLAYORDER=
